<mxfile host="Electron" modified="2023-09-10T12:46:36.792Z" agent="Mozilla/5.0 (Windows NT 10.0; Win64; x64) AppleWebKit/537.36 (KHTML, like Gecko) draw.io/21.6.8 Chrome/114.0.5735.289 Electron/25.5.0 Safari/537.36" etag="K4bAlBmLulX25ZVa8Ecf" version="21.6.8" type="device">
  <diagram name="第 1 页" id="uirj7UwnjHAc908DG9zA">
    <mxGraphModel dx="1434" dy="2053" grid="1" gridSize="10" guides="1" tooltips="1" connect="1" arrows="1" fold="1" page="1" pageScale="1" pageWidth="827" pageHeight="1169" math="0" shadow="0">
      <root>
        <mxCell id="0" />
        <mxCell id="1" parent="0" />
        <mxCell id="sFHfNvW3am0BZzK_AOpW-1" value="" style="rounded=1;whiteSpace=wrap;html=1;fillColor=#eeeeee;strokeColor=#36393d;" vertex="1" parent="1">
          <mxGeometry x="60" y="-170" width="700" height="430" as="geometry" />
        </mxCell>
        <mxCell id="sFHfNvW3am0BZzK_AOpW-6" value="&lt;font style=&quot;font-size: 16px;&quot;&gt;Native Method Stack&lt;/font&gt;" style="rounded=1;whiteSpace=wrap;html=1;fillStyle=auto;horizontal=1;verticalAlign=top;fillColor=#fff2cc;gradientColor=#ffd966;strokeColor=#d6b656;" vertex="1" parent="1">
          <mxGeometry x="560" y="-110" width="170" height="180" as="geometry" />
        </mxCell>
        <mxCell id="sFHfNvW3am0BZzK_AOpW-7" value="&lt;font style=&quot;font-size: 16px;&quot;&gt;Program Counter Register&lt;/font&gt;" style="rounded=1;whiteSpace=wrap;html=1;fillStyle=auto;horizontal=1;verticalAlign=top;fillColor=#fff2cc;gradientColor=#ffd966;strokeColor=#d6b656;" vertex="1" parent="1">
          <mxGeometry x="560" y="120" width="170" height="50" as="geometry" />
        </mxCell>
        <mxCell id="sFHfNvW3am0BZzK_AOpW-21" value="" style="group" vertex="1" connectable="0" parent="1">
          <mxGeometry x="360" y="-110" width="170" height="330" as="geometry" />
        </mxCell>
        <mxCell id="sFHfNvW3am0BZzK_AOpW-5" value="&lt;font style=&quot;font-size: 16px;&quot;&gt;VM Stack&lt;/font&gt;" style="rounded=1;whiteSpace=wrap;html=1;fillStyle=auto;horizontal=1;verticalAlign=top;fillColor=#fff2cc;gradientColor=#ffd966;strokeColor=#d6b656;" vertex="1" parent="sFHfNvW3am0BZzK_AOpW-21">
          <mxGeometry width="170" height="290" as="geometry" />
        </mxCell>
        <mxCell id="sFHfNvW3am0BZzK_AOpW-17" value="" style="group" vertex="1" connectable="0" parent="sFHfNvW3am0BZzK_AOpW-21">
          <mxGeometry x="25" y="40" width="120" height="130" as="geometry" />
        </mxCell>
        <mxCell id="sFHfNvW3am0BZzK_AOpW-10" value="&lt;span style=&quot;color: rgb(77, 81, 86); font-family: arial, sans-serif; font-size: 14px; font-style: normal; font-variant-ligatures: normal; font-variant-caps: normal; font-weight: 400; letter-spacing: normal; orphans: 2; text-align: left; text-indent: 0px; text-transform: none; widows: 2; word-spacing: 0px; -webkit-text-stroke-width: 0px; text-decoration-thickness: initial; text-decoration-style: initial; text-decoration-color: initial; float: none; display: inline !important;&quot;&gt;Stack Frame&lt;/span&gt;" style="rounded=0;whiteSpace=wrap;html=1;fillColor=#d5e8d4;gradientColor=#97d077;strokeColor=#82b366;labelBackgroundColor=none;verticalAlign=top;" vertex="1" parent="sFHfNvW3am0BZzK_AOpW-17">
          <mxGeometry width="120" height="130" as="geometry" />
        </mxCell>
        <mxCell id="sFHfNvW3am0BZzK_AOpW-16" value="" style="group;labelBackgroundColor=none;fillColor=#dae8fc;strokeColor=#6c8ebf;gradientColor=#7ea6e0;" vertex="1" connectable="0" parent="sFHfNvW3am0BZzK_AOpW-17">
          <mxGeometry x="15" y="30" width="90" height="80" as="geometry" />
        </mxCell>
        <mxCell id="sFHfNvW3am0BZzK_AOpW-11" value="&lt;div style=&quot;text-align: left;&quot;&gt;&lt;font size=&quot;1&quot; face=&quot;arial, sans-serif&quot; color=&quot;#4d5156&quot;&gt;&lt;span style=&quot;font-size: 12px;&quot;&gt;局部变量表&lt;/span&gt;&lt;/font&gt;&lt;/div&gt;" style="rounded=0;whiteSpace=wrap;html=1;labelBackgroundColor=none;fillColor=#dae8fc;strokeColor=#6c8ebf;gradientColor=#7ea6e0;" vertex="1" parent="sFHfNvW3am0BZzK_AOpW-16">
          <mxGeometry width="90" height="20" as="geometry" />
        </mxCell>
        <mxCell id="sFHfNvW3am0BZzK_AOpW-12" value="&lt;div style=&quot;text-align: left;&quot;&gt;&lt;font size=&quot;1&quot; face=&quot;arial, sans-serif&quot; color=&quot;#4d5156&quot;&gt;&lt;span style=&quot;font-size: 12px;&quot;&gt;操作数栈&lt;/span&gt;&lt;/font&gt;&lt;/div&gt;" style="rounded=0;whiteSpace=wrap;html=1;labelBackgroundColor=none;fillColor=#dae8fc;strokeColor=#6c8ebf;gradientColor=#7ea6e0;" vertex="1" parent="sFHfNvW3am0BZzK_AOpW-16">
          <mxGeometry y="20" width="90" height="20" as="geometry" />
        </mxCell>
        <mxCell id="sFHfNvW3am0BZzK_AOpW-13" value="&lt;div style=&quot;text-align: left;&quot;&gt;&lt;font size=&quot;1&quot; face=&quot;arial, sans-serif&quot; color=&quot;#4d5156&quot;&gt;&lt;span style=&quot;font-size: 12px;&quot;&gt;动态链接&lt;/span&gt;&lt;/font&gt;&lt;/div&gt;" style="rounded=0;whiteSpace=wrap;html=1;labelBackgroundColor=none;fillColor=#dae8fc;strokeColor=#6c8ebf;gradientColor=#7ea6e0;" vertex="1" parent="sFHfNvW3am0BZzK_AOpW-16">
          <mxGeometry y="40" width="90" height="20" as="geometry" />
        </mxCell>
        <mxCell id="sFHfNvW3am0BZzK_AOpW-14" value="&lt;div style=&quot;text-align: left;&quot;&gt;&lt;font size=&quot;1&quot; face=&quot;arial, sans-serif&quot; color=&quot;#4d5156&quot;&gt;&lt;span style=&quot;font-size: 12px;&quot;&gt;方法出口&lt;/span&gt;&lt;/font&gt;&lt;/div&gt;" style="rounded=0;whiteSpace=wrap;html=1;labelBackgroundColor=none;fillColor=#dae8fc;strokeColor=#6c8ebf;gradientColor=#7ea6e0;" vertex="1" parent="sFHfNvW3am0BZzK_AOpW-16">
          <mxGeometry y="60" width="90" height="20" as="geometry" />
        </mxCell>
        <mxCell id="sFHfNvW3am0BZzK_AOpW-18" value="&lt;span style=&quot;color: rgb(77, 81, 86); font-family: arial, sans-serif; font-size: 14px; font-style: normal; font-variant-ligatures: normal; font-variant-caps: normal; font-weight: 400; letter-spacing: normal; orphans: 2; text-align: left; text-indent: 0px; text-transform: none; widows: 2; word-spacing: 0px; -webkit-text-stroke-width: 0px; text-decoration-thickness: initial; text-decoration-style: initial; text-decoration-color: initial; float: none; display: inline !important;&quot;&gt;Stack Frame&lt;/span&gt;" style="rounded=0;whiteSpace=wrap;html=1;fillColor=#d5e8d4;gradientColor=#97d077;strokeColor=#82b366;labelBackgroundColor=none;verticalAlign=top;" vertex="1" parent="sFHfNvW3am0BZzK_AOpW-21">
          <mxGeometry x="25" y="170" width="120" height="30" as="geometry" />
        </mxCell>
        <mxCell id="sFHfNvW3am0BZzK_AOpW-19" value="&lt;span style=&quot;color: rgb(77, 81, 86); font-family: arial, sans-serif; font-size: 14px; font-style: normal; font-variant-ligatures: normal; font-variant-caps: normal; font-weight: 400; letter-spacing: normal; orphans: 2; text-align: left; text-indent: 0px; text-transform: none; widows: 2; word-spacing: 0px; -webkit-text-stroke-width: 0px; text-decoration-thickness: initial; text-decoration-style: initial; text-decoration-color: initial; float: none; display: inline !important;&quot;&gt;Stack Frame&lt;/span&gt;" style="rounded=0;whiteSpace=wrap;html=1;fillColor=#d5e8d4;gradientColor=#97d077;strokeColor=#82b366;labelBackgroundColor=none;verticalAlign=top;" vertex="1" parent="sFHfNvW3am0BZzK_AOpW-21">
          <mxGeometry x="25" y="200" width="120" height="30" as="geometry" />
        </mxCell>
        <mxCell id="sFHfNvW3am0BZzK_AOpW-20" value="&lt;span style=&quot;color: rgb(77, 81, 86); font-family: arial, sans-serif; font-size: 14px; font-style: normal; font-variant-ligatures: normal; font-variant-caps: normal; font-weight: 400; letter-spacing: normal; orphans: 2; text-align: left; text-indent: 0px; text-transform: none; widows: 2; word-spacing: 0px; -webkit-text-stroke-width: 0px; text-decoration-thickness: initial; text-decoration-style: initial; text-decoration-color: initial; float: none; display: inline !important;&quot;&gt;Stack Frame&lt;/span&gt;" style="rounded=0;whiteSpace=wrap;html=1;fillColor=#d5e8d4;gradientColor=#97d077;strokeColor=#82b366;labelBackgroundColor=none;verticalAlign=top;" vertex="1" parent="sFHfNvW3am0BZzK_AOpW-21">
          <mxGeometry x="25" y="230" width="120" height="30" as="geometry" />
        </mxCell>
        <mxCell id="sFHfNvW3am0BZzK_AOpW-28" value="" style="group" vertex="1" connectable="0" parent="1">
          <mxGeometry x="110" y="10" width="230" height="210" as="geometry" />
        </mxCell>
        <mxCell id="sFHfNvW3am0BZzK_AOpW-4" value="&lt;font style=&quot;font-size: 16px;&quot;&gt;Heap&lt;/font&gt;" style="rounded=1;whiteSpace=wrap;html=1;fillStyle=auto;horizontal=1;verticalAlign=top;fillColor=#dae8fc;gradientColor=#7ea6e0;strokeColor=#6c8ebf;" vertex="1" parent="sFHfNvW3am0BZzK_AOpW-28">
          <mxGeometry width="230" height="210" as="geometry" />
        </mxCell>
        <mxCell id="sFHfNvW3am0BZzK_AOpW-26" value="&lt;font style=&quot;font-size: 14px;&quot;&gt;Old&lt;/font&gt;" style="rounded=0;whiteSpace=wrap;html=1;fillColor=#ffcd28;gradientColor=#ffa500;strokeColor=#d79b00;" vertex="1" parent="sFHfNvW3am0BZzK_AOpW-28">
          <mxGeometry x="20" y="110" width="190" height="75" as="geometry" />
        </mxCell>
        <mxCell id="sFHfNvW3am0BZzK_AOpW-27" value="" style="group" vertex="1" connectable="0" parent="sFHfNvW3am0BZzK_AOpW-28">
          <mxGeometry x="20" y="40" width="190" height="40" as="geometry" />
        </mxCell>
        <mxCell id="sFHfNvW3am0BZzK_AOpW-22" value="&lt;font style=&quot;font-size: 14px;&quot;&gt;Eden&lt;/font&gt;" style="rounded=0;whiteSpace=wrap;html=1;fillColor=#ffcd28;gradientColor=#ffa500;strokeColor=#d79b00;" vertex="1" parent="sFHfNvW3am0BZzK_AOpW-27">
          <mxGeometry width="110" height="40" as="geometry" />
        </mxCell>
        <mxCell id="sFHfNvW3am0BZzK_AOpW-23" value="&lt;font style=&quot;font-size: 14px;&quot;&gt;From&lt;/font&gt;" style="rounded=0;whiteSpace=wrap;html=1;fillColor=#ffcd28;gradientColor=#ffa500;strokeColor=#d79b00;" vertex="1" parent="sFHfNvW3am0BZzK_AOpW-27">
          <mxGeometry x="110" width="40" height="40" as="geometry" />
        </mxCell>
        <mxCell id="sFHfNvW3am0BZzK_AOpW-24" value="&lt;font style=&quot;font-size: 14px;&quot;&gt;To&lt;/font&gt;" style="rounded=0;whiteSpace=wrap;html=1;fillColor=#ffcd28;gradientColor=#ffa500;strokeColor=#d79b00;" vertex="1" parent="sFHfNvW3am0BZzK_AOpW-27">
          <mxGeometry x="150" width="40" height="40" as="geometry" />
        </mxCell>
        <mxCell id="sFHfNvW3am0BZzK_AOpW-29" value="&lt;b&gt;&lt;font style=&quot;font-size: 10px;&quot;&gt;&lt;i&gt;GC-Copying&lt;/i&gt;&lt;/font&gt;&lt;/b&gt;" style="rounded=0;whiteSpace=wrap;html=1;glass=1;fillColor=#f8cecc;gradientColor=#ea6b66;strokeColor=#b85450;" vertex="1" parent="sFHfNvW3am0BZzK_AOpW-28">
          <mxGeometry x="47.5" y="80" width="135" height="20" as="geometry" />
        </mxCell>
        <mxCell id="sFHfNvW3am0BZzK_AOpW-31" value="&lt;b&gt;&lt;font style=&quot;font-size: 10px;&quot;&gt;&lt;i&gt;GC-Mark-Compact&lt;/i&gt;&lt;/font&gt;&lt;/b&gt;" style="rounded=0;whiteSpace=wrap;html=1;glass=1;fillColor=#f8cecc;gradientColor=#ea6b66;strokeColor=#b85450;" vertex="1" parent="sFHfNvW3am0BZzK_AOpW-28">
          <mxGeometry x="47.5" y="185" width="135" height="20" as="geometry" />
        </mxCell>
        <mxCell id="sFHfNvW3am0BZzK_AOpW-32" value="" style="group" vertex="1" connectable="0" parent="1">
          <mxGeometry x="110" y="-130" width="230" height="130" as="geometry" />
        </mxCell>
        <mxCell id="sFHfNvW3am0BZzK_AOpW-2" value="&lt;font style=&quot;font-size: 16px;&quot;&gt;Method Area&lt;/font&gt;" style="rounded=1;whiteSpace=wrap;html=1;fillStyle=auto;horizontal=1;verticalAlign=top;fillColor=#dae8fc;gradientColor=#7ea6e0;strokeColor=#6c8ebf;" vertex="1" parent="sFHfNvW3am0BZzK_AOpW-32">
          <mxGeometry width="230" height="130" as="geometry" />
        </mxCell>
        <mxCell id="sFHfNvW3am0BZzK_AOpW-3" value="&lt;font style=&quot;font-size: 14px;&quot;&gt;Constant Pool&lt;/font&gt;" style="rounded=1;whiteSpace=wrap;html=1;fillColor=#f5f5f5;gradientColor=#b3b3b3;strokeColor=#666666;" vertex="1" parent="sFHfNvW3am0BZzK_AOpW-32">
          <mxGeometry x="40.88235294117647" y="40" width="148.23529411764707" height="60" as="geometry" />
        </mxCell>
      </root>
    </mxGraphModel>
  </diagram>
</mxfile>
